<svg id="Layer_1" data-name="Layer 1" xmlns="http://www.w3.org/2000/svg" viewBox="0 0 256 256"><defs><style>.cls-1{fill:#808285;}</style></defs><path class="cls-1" d="M100.38,120.39a7,7,0,0,0-5.45,2.33v-8.07H91.3v23.58h3.63v-9.81c0-3.22,1.76-4.88,4.43-4.88s4.4,1.66,4.4,4.88v9.81h3.6V127.88C107.36,123,104.3,120.39,100.38,120.39Z"/><path class="cls-1" d="M119.75,120.39a8.66,8.66,0,0,0-9,9c0,5.51,3.79,9.08,8.79,9.08a8.8,8.8,0,0,0,9.12-9.08A8.66,8.66,0,0,0,119.75,120.39Zm-.16,15c-2.74,0-5.09-1.94-5.09-5.92s2.45-5.9,5.19-5.9,5.29,1.92,5.29,5.9S122.3,135.36,119.59,135.36Z"/><path class="cls-1" d="M220.07,3.77H35.93A32.25,32.25,0,0,0,3.77,35.93V220.07a32.25,32.25,0,0,0,32.16,32.16H220.07a32.25,32.25,0,0,0,32.16-32.16V35.93A32.25,32.25,0,0,0,220.07,3.77ZM156.18,202.49H35.5V166.62h81.3V145H40.19V108.93H116.8V87.29H35.5V51.21H156.18v57.73a48.75,48.75,0,0,0-10.07,7.88,52.13,52.13,0,0,0-10.72,16,50.15,50.15,0,0,0,0,38.78,51.49,51.49,0,0,0,10.72,16,47.85,47.85,0,0,0,10.07,7.9ZM205,193.17a45.74,45.74,0,0,1-20.4,4.68,44.68,44.68,0,0,1-18.15-3.67,45.59,45.59,0,0,1-5.39-2.77,44.13,44.13,0,0,1-9.31-7.3,47.65,47.65,0,0,1-9.91-14.81,46.31,46.31,0,0,1,0-35.85,47.88,47.88,0,0,1,9.91-14.81,44.74,44.74,0,0,1,9.31-7.29,45.65,45.65,0,0,1,5.39-2.78,45,45,0,0,1,18.15-3.67,45.75,45.75,0,0,1,16.95,3.22,51.1,51.1,0,0,1,15.05,9.33l-18.1,15.84a23.44,23.44,0,0,0-13.79-4.64,21.61,21.61,0,0,0-8.82,1.81,20.94,20.94,0,0,0-7,5,23.71,23.71,0,0,0-4.64,7.3,22.55,22.55,0,0,0-1.69,8.64,23.18,23.18,0,0,0,6.33,16,22.29,22.29,0,0,0,6.95,5,20.48,20.48,0,0,0,8.77,1.87,21.25,21.25,0,0,0,10.11-2.49,25.25,25.25,0,0,0,8.2-7l18.66,15.16A49.12,49.12,0,0,1,205,193.17Z"/><path class="cls-1" d="M78.75,120.39a8.66,8.66,0,0,0-9,9c0,5.51,3.79,9.08,8.79,9.08a8.79,8.79,0,0,0,9.11-9.08A8.66,8.66,0,0,0,78.75,120.39Zm-.16,15c-2.74,0-5.1-1.94-5.1-5.92s2.46-5.9,5.2-5.9,5.28,1.92,5.28,5.9S81.3,135.36,78.59,135.36Z"/><polygon class="cls-1" points="52.4 119.24 62.66 119.24 52.4 135.4 52.4 138.23 66.99 138.23 66.99 135.08 56.7 135.08 66.99 118.92 66.99 116.09 52.4 116.09 52.4 119.24"/></svg>